# xmcd
#
# Track frame offsets:
#	150
#	13576
#	23530
#	35132
#	47391
#	58819
#	71126
#	83399
#	98290
#	111377
#	124113
#	136174
#	150018
#	163361
#	176691
#	190345
#	201934
#
# Disc length: 2869 seconds
# Revision: 0
# Processed by: cddbd v1.5.2PL0 Copyright (c) Steve Scherf et al.
# Submitted via: dBpowerAMP V12.0
#
DISCID=d80b3311
DTITLE=Various Artist - Roots of Funk [CD 8)
DYEAR=2011
DGENRE=Funk
TTITLE0=Amos Milburn - Good Good Whiskey
TTITLE1=Wynonie Harris - Don't Take My Whiskey Away from Me
TTITLE2=Little Junior Parker - Sittin' at the Bar
TTITLE3=Floyd Dixon - Wine, Wine, Wine
TTITLE4=Jimmy Witherspoon - Barfly Blues
TTITLE5=Walter Brown - Sloppy Drunk
TTITLE6=Eddie Cleanhead Vinson - When I Get Drunk
TTITLE7=Johnny Moore's Three Blazers and Frankie Ervin - Saturday Night (Four Nights Drunk)
TTITLE8=The Four Blazes - Drunken Blues
TTITLE9=John Lee Hooker - Whiskey and Wimmen
TTITLE10=Floyd Dixon - Moonshine
TTITLE11=Willie Dixon - If the Sea Was Whiskey
TTITLE12=Jimmy McCracklin - Beer Drinkin' Woman
TTITLE13=Eddie Cleanhead Vinson - When a Women Loves Her Juice
TTITLE14=Junior Parker - Bad Women, Bad Whiskey
TTITLE15=Screamin' Jay Hawkins - Baptize Me in Wine
TTITLE16=Amos Milburn - Bad, Bad Whiskey
EXTD=
EXTT0=
EXTT1=
EXTT2=
EXTT3=
EXTT4=
EXTT5=
EXTT6=
EXTT7=
EXTT8=
EXTT9=
EXTT10=
EXTT11=
EXTT12=
EXTT13=
EXTT14=
EXTT15=
EXTT16=
PLAYORDER=
